<svg aria-hidden="true" style="position: absolute; width: 0; height: 0; overflow: hidden;" version="1.1" xmlns="http://www.w3.org/2000/svg" xmlns:xlink="http://www.w3.org/1999/xlink">
<defs>
<symbol id="icon-down" viewBox="0 0 32 32">
<path fill="#dc414c" style="fill: var(--color1, #dc414c)" d="M0 8l16 16 16-16z"></path>
</symbol>
<symbol id="icon-facebook" viewBox="0 0 32 32">
<path fill="#178ff5" style="fill: var(--color2, #178ff5)" d="M30.234 0h-28.467c-0.976 0-1.766 0.79-1.766 1.766v28.469c0 0.974 0.79 1.765 1.766 1.765h15.328v-12.392h-4.173v-4.829h4.17v-3.563c0-4.133 2.525-6.384 6.213-6.384 1.766 0 3.283 0.131 3.726 0.19v4.32h-2.557c-2.006 0-2.394 0.955-2.394 2.352v3.085h4.782l-0.624 4.829h-4.16v12.392h8.157c0.973 0 1.763-0.79 1.763-1.766v-28.467c0.002-0.976-0.789-1.766-1.765-1.766z"></path>
</symbol>
<symbol id="icon-instagram" viewBox="0 0 32 32">
<path d="M16 2.883c4.272 0 4.779 0.016 6.467 0.094 4.336 0.197 6.36 2.254 6.558 6.558 0.077 1.686 0.091 2.192 0.091 6.464 0 4.275-0.016 4.781-0.091 6.467-0.198 4.299-2.219 6.36-6.56 6.558-1.686 0.077-2.192 0.093-6.466 0.093-4.272 0-4.779-0.016-6.464-0.093-4.347-0.198-6.363-2.266-6.56-6.56-0.077-1.686-0.093-2.192-0.093-6.466 0-4.272 0.016-4.778 0.093-6.464 0.198-4.304 2.219-6.363 6.56-6.56 1.686-0.077 2.192-0.093 6.464-0.093zM16 0c-4.346 0-4.89 0.019-6.595 0.096-5.811 0.267-9.040 3.491-9.309 9.307-0.080 1.707-0.096 2.251-0.096 6.597s0.019 4.891 0.096 6.597c0.267 5.811 3.491 9.040 9.307 9.307 1.707 0.077 2.251 0.096 6.597 0.096s4.891-0.019 6.597-0.096c5.806-0.267 9.043-3.491 9.306-9.307 0.080-1.706 0.098-2.251 0.098-6.597s-0.019-4.89-0.096-6.595c-0.261-5.806-3.488-9.040-9.306-9.309-1.707-0.080-2.253-0.096-6.598-0.096zM16 7.784c-4.538 0-8.216 3.678-8.216 8.216s3.678 8.216 8.216 8.216v0c4.538 0 8.216-3.678 8.216-8.216s-3.678-8.216-8.216-8.216v0zM16 21.333c-2.945 0-5.333-2.388-5.333-5.333s2.388-5.333 5.333-5.333v0c2.945 0 5.333 2.388 5.333 5.333s-2.388 5.333-5.333 5.333v0zM24.541 5.541c-1.060 0-1.92 0.86-1.92 1.92s0.86 1.92 1.92 1.92v0c1.060 0 1.92-0.86 1.92-1.92s-0.86-1.92-1.92-1.92v0z"></path>
</symbol>
<symbol id="icon-twitter" viewBox="0 0 32 32">
<path fill="#1da1f2" style="fill: var(--color3, #1da1f2)" d="M32 5.478c-1.098 0.5-2.372 0.864-3.708 1.027l-0.063 0.006c1.359-0.821 2.38-2.084 2.875-3.586l0.013-0.046c-1.2 0.725-2.597 1.278-4.085 1.579l-0.084 0.014c-1.199-1.278-2.898-2.074-4.783-2.074-0.003 0-0.006 0-0.009 0h0c-4.24 0-7.354 3.955-6.397 8.059-5.468-0.281-10.279-2.879-13.505-6.823l-0.026-0.033c-0.558 0.946-0.888 2.084-0.888 3.3 0 2.269 1.149 4.269 2.897 5.45l0.023 0.015c-1.097-0.035-2.116-0.335-3.005-0.838l0.033 0.017c-0.070 3.038 2.109 5.885 5.266 6.517-0.517 0.146-1.111 0.23-1.724 0.23-0.439 0-0.867-0.043-1.282-0.125l0.042 0.007c0.864 2.629 3.272 4.504 6.126 4.558l0.006 0c-2.221 1.755-5.061 2.815-8.149 2.815-0.554 0-1.1-0.034-1.635-0.1l0.064 0.006c2.839 1.849 6.314 2.949 10.046 2.949 0.006 0 0.013 0 0.019 0h-0.001c12.189 0 19.075-10.294 18.661-19.528 1.289-0.94 2.376-2.066 3.245-3.351l0.030-0.047z"></path>
</symbol>
<symbol id="icon-up" viewBox="0 0 32 32">
<path fill="#1eb589" style="fill: var(--color4, #1eb589)" d="M0 24l16-16 16 16z"></path>
</symbol>
<symbol id="icon-youtube" viewBox="0 0 32 32">
<path fill="#c4032b" style="fill: var(--color5, #c4032b)" d="M16 0c-8.835 0-16 7.165-16 16 0 8.837 7.165 16 16 16 8.837 0 16-7.163 16-16 0-8.835-7.163-16-16-16zM21.92 22.523c-2.8 0.192-9.043 0.192-11.843 0-3.034-0.208-3.387-1.694-3.41-6.523 0.022-4.838 0.379-6.315 3.41-6.523 2.8-0.192 9.043-0.192 11.845 0 3.035 0.208 3.387 1.694 3.411 6.523-0.024 4.838-0.379 6.315-3.411 6.523zM13.334 12.877l6.557 3.118-6.557 3.128v-6.246z"></path>
</symbol>
</defs>
</svg>
