<!-- Generated by IcoMoon.io -->
<svg version="1.1" xmlns="http://www.w3.org/2000/svg" width="32" height="32" viewBox="0 0 32 32">
<title>icon-twitter</title>
<path fill="#1da1f2" d="M32 5.478c-1.098 0.5-2.372 0.864-3.708 1.027l-0.063 0.006c1.359-0.821 2.38-2.084 2.875-3.586l0.013-0.046c-1.2 0.725-2.597 1.278-4.085 1.579l-0.084 0.014c-1.199-1.278-2.898-2.074-4.783-2.074-0.003 0-0.006 0-0.009 0h0c-4.24 0-7.354 3.955-6.397 8.059-5.468-0.281-10.279-2.879-13.505-6.823l-0.026-0.033c-0.558 0.946-0.888 2.084-0.888 3.3 0 2.269 1.149 4.269 2.897 5.45l0.023 0.015c-1.097-0.035-2.116-0.335-3.005-0.838l0.033 0.017c-0.070 3.038 2.109 5.885 5.266 6.517-0.517 0.146-1.111 0.23-1.724 0.23-0.439 0-0.867-0.043-1.282-0.125l0.042 0.007c0.864 2.629 3.272 4.504 6.126 4.558l0.006 0c-2.221 1.755-5.061 2.815-8.149 2.815-0.554 0-1.1-0.034-1.635-0.1l0.064 0.006c2.839 1.849 6.314 2.949 10.046 2.949 0.006 0 0.013 0 0.019 0h-0.001c12.189 0 19.075-10.294 18.661-19.528 1.289-0.94 2.376-2.066 3.245-3.351l0.030-0.047z"></path>
</svg>
