<!-- Generated by IcoMoon.io -->
<svg version="1.1" xmlns="http://www.w3.org/2000/svg" width="32" height="32" viewBox="0 0 32 32">
<title>icon-youtube</title>
<path fill="#c4032b" d="M16 0c-8.835 0-16 7.165-16 16 0 8.837 7.165 16 16 16 8.837 0 16-7.163 16-16 0-8.835-7.163-16-16-16zM21.92 22.523c-2.8 0.192-9.043 0.192-11.843 0-3.034-0.208-3.387-1.694-3.41-6.523 0.022-4.838 0.379-6.315 3.41-6.523 2.8-0.192 9.043-0.192 11.845 0 3.035 0.208 3.387 1.694 3.411 6.523-0.024 4.838-0.379 6.315-3.411 6.523zM13.334 12.877l6.557 3.118-6.557 3.128v-6.246z"></path>
</svg>
